<?xml version="1.0" standalone="no"?>
<!DOCTYPE svg PUBLIC "-//W3C//DTD SVG 20010904//EN"
 "http://www.w3.org/TR/2001/REC-SVG-20010904/DTD/svg10.dtd">
<svg version="1.0" xmlns="http://www.w3.org/2000/svg"
 width="920.000000pt" height="600.000000pt" viewBox="0 0 920.000000 600.000000"
 preserveAspectRatio="xMidYMid meet">

<g transform="translate(0.000000,600.000000) scale(0.100000,-0.100000)"
fill="#000000" stroke="none">
<path d="M4435 5863 c-668 -33 -1372 -343 -1826 -803 -664 -673 -949 -1625
-760 -2533 111 -532 403 -1069 774 -1424 626 -598 1496 -883 2327 -763 404 59
822 218 1165 444 623 410 1054 1084 1192 1864 26 147 28 174 28 442 -1 252 -3
300 -24 420 -50 294 -128 532 -256 785 -162 322 -328 560 -534 765 -395 394
-943 673 -1511 769 -114 20 -397 43 -475 39 -22 -1 -67 -3 -100 -5z m1439
-1694 c38 -30 56 -71 56 -128 0 -44 -76 -410 -406 -1960 -66 -311 -84 -371
-124 -406 -28 -26 -111 -26 -159 -1 -26 14 -477 344 -687 502 l-31 24 -180
-173 c-166 -161 -240 -217 -284 -217 -13 0 -11 48 13 356 l28 356 67 62 c93
84 480 438 896 819 192 175 346 324 344 330 -2 7 -19 12 -38 12 -28 0 -187
-96 -846 -512 l-811 -511 -372 114 c-205 62 -383 120 -395 128 -12 8 -25 24
-28 35 -7 28 22 82 59 106 16 11 163 72 325 134 297 115 590 228 1284 496 209
80 414 159 455 176 782 305 776 303 834 258z"/>
</g>
</svg>
